#!OML:ASF H:\Male1\Project 1\Capture day 1\Session 1\Male1.ASF
:FULLY-SPECIFIED
:DEGREES
509
root 11.4034 14.702 -7.23895 -549.279 -44.344 -169.091
lowerback 11.6967 3.05969 2.03405
upperback 6.93624 3.69985 0.203876
thorax 0.824213 1.67589 -1.32275
lowerneck -6.17256 0.112597 4.78239
upperneck -0.583856 -0.17042 -6.73072
head 0.885688 -0.218772 -3.00822
rclavicle -5.1684e-015 -1.19271e-014
rhumerus -47.7398 27.7494 -97.3823
rradius 106.863
rwrist -23.3899
rhand -22.6244 19.4978
rfingers 7.12502
rthumb 3.80583 -10.448
lclavicle -5.1684e-015 -1.19271e-014
lhumerus -78.0289 2.14603 83.8529
lradius 69.3901
lwrist 21.0535
lhand -25.7924 2.94312
lfingers 7.12502
lthumb 0.746284 32.9216
rfemur -2.45255 -1.4304 22.4229
rtibia 71.1709
rfoot -13.3707 -21.6905
rtoes -20.2279
lfemur -23.9742 -8.56129 -28.2443
ltibia 43.5077
lfoot -15.8478 0.113275
ltoes 28.8246
510
root 11.0755 14.6129 -7.6146 -548.312 -45.2865 -170.647
lowerback 11.9455 3.00582 0.697643
upperback 6.90735 3.50002 -0.245481
thorax 0.592559 1.54437 -1.03537
lowerneck -6.08201 0.0500708 4.75928
upperneck -0.421589 -0.238038 -6.69812
head 0.917184 -0.249442 -2.99508
rclavicle -8.11041e-014 4.77083e-015
rhumerus -49.1665 26.0171 -97.6863
rradius 105.303
rwrist -22.2607
rhand -24.0379 19.2812
rfingers 7.12502
rthumb 2.44072 -10.6846
lclavicle -8.11041e-014 4.77083e-015
lhumerus -75.4198 1.28589 84.0027
lradius 68.4258
lwrist 21.4249
lhand -26.8232 4.50325
lfingers 7.12502
lthumb -0.249316 34.4828
rfemur -6.8384 -0.00598557 20.6356
rtibia 74.9881
rfoot -13.9329 -21.2249
rtoes -20.5762
lfemur -22.4018 -8.68512 -29.9765
ltibia 44.9675
lfoot -17.6249 -0.764918
ltoes 29.1499
511
root 10.7462 14.5603 -7.97925 -547.522 -46.5065 -171.624
lowerback 12.0127 2.84906 -0.219145
upperback 6.83365 3.20847 -0.524267
thorax 0.434575 1.38143 -0.785085
lowerneck -6.07858 -0.00795958 4.66581
upperneck -0.154079 -0.293163 -6.71594
head 0.998741 -0.277094 -2.9874
rclavicle 2.3059e-014 -5.56597e-015
rhumerus -50.6888 24.2573 -97.7202
rradius 103.655
rwrist -21.421
rhand -25.4887 19.0039
rfingers 7.12502
rthumb 1.03954 -10.9733
lclavicle 2.3059e-014 -5.56597e-015
lhumerus -72.5192 0.41499 84.0792
lradius 68.074
lwrist 21.3554
lhand -27.9376 5.88739
lfingers 7.12502
lthumb -1.32566 35.863
rfemur -11.544 1.34196 19.4689
rtibia 77.5747
rfoot -14.5459 -20.6837
rtoes -21.2236
lfemur -20.7396 -8.86385 -31.2059
ltibia 45.8439
lfoot -18.9886 -1.71227
ltoes 29.4768
512
root 10.4116 14.5425 -8.3355 -547.101 -48.0282 -171.912
lowerback 11.9234 2.58483 -0.675457
upperback 6.75256 2.83122 -0.600975
thorax 0.373589 1.18931 -0.565003
lowerneck -6.16923 -0.0484291 4.54
upperneck 0.215549 -0.320339 -6.80422
head 1.13208 -0.294933 -2.99925
rclavicle 3.1408e-014 -5.56597e-015
rhumerus -52.3282 22.5539 -97.4701
rradius 102.157
rwrist -20.9548
rhand -26.7564 18.8504
rfingers 7.12502
rthumb -0.1848 -11.1293
lclavicle 3.1408e-014 -5.56597e-015
lhumerus -69.5712 -0.316977 84.0556
lradius 68.6287
lwrist 21.0536
lhand -28.8718 6.93754
lfingers 7.12502
lthumb -2.22791 36.9057
rfemur -16.2041 2.46523 18.9119
rtibia 78.7538
rfoot -15.2349 -20.2855
rtoes -22.0413
lfemur -18.8502 -9.15387 -31.9014
ltibia 46.1639
lfoot -20.0198 -2.69349
ltoes 29.0107
513
root 10.0663 14.559 -8.68537 -547.014 -49.8071 -171.712
lowerback 11.7142 2.26261 -0.83054
upperback 6.69983 2.41452 -0.525229
thorax 0.418843 0.984513 -0.346496
lowerneck -6.35596 -0.0559258 4.44458
upperneck 0.670057 -0.302481 -6.98526
head 1.3141 -0.295321 -3.05001
rclavicle 9.34288e-014 -1.51076e-014
rhumerus -54.0851 20.9103 -96.9701
rradius 100.987
rwrist -20.8665
rhand -27.6883 18.9904
rfingers 7.12502
rthumb -1.08491 -10.9866
lclavicle 9.34288e-014 -1.51076e-014
lhumerus -66.7454 -0.856367 83.979
lradius 70.2261
lwrist 20.8074
lhand -29.5929 7.58989
lfingers 7.12502
lthumb -2.92427 37.5496
rfemur -20.5026 3.32157 18.7247
rtibia 78.4368
rfoot -15.9789 -20.1678
rtoes -22.9775
lfemur -16.7042 -9.63251 -32.2398
ltibia 45.9722
lfoot -20.4375 -3.44629
ltoes 28.2939
514
root 9.70672 14.6063 -9.02988 -547.147 -51.7749 -171.318
lowerback 11.491 1.93412 -0.898564
upperback 6.6759 1.99813 -0.355979
thorax 0.505514 0.779802 -0.0811795
lowerneck -6.62344 0.000596615 4.42878
upperneck 1.22993 -0.197309 -7.30051
head 1.55327 -0.258395 -3.16273
rclavicle -2.78299e-014 -2.70347e-014
rhumerus -55.9936 19.3087 -96.2809
rradius 100.231
rwrist -21.1132
rhand -28.2543 19.4429
rfingers 7.12502
rthumb -1.63152 -10.5306
lclavicle -2.78299e-014 -2.70347e-014
lhumerus -64.1794 -1.235 83.9755
lradius 72.8611
lwrist 20.8786
lhand -30.0048 7.78501
lfingers 7.12502
lthumb -3.32214 37.7389
rfemur -24.1555 3.93425 18.6413
rtibia 76.5985
rfoot -16.7525 -20.3281
rtoes -24.01
lfemur -14.2697 -10.2774 -32.4676
ltibia 45.3575
lfoot -20.1859 -3.88795
ltoes 27.0879
515
root 9.32497 14.6872 -9.36923 -547.468 -53.7927 -170.817
lowerback 11.2332 1.64509 -0.899569
upperback 6.69087 1.63753 -0.13335
thorax 0.655609 0.601957 0.194583
lowerneck -6.9424 0.142677 4.52336
upperneck 1.88362 0.0244046 -7.77452
head 1.8457 -0.170557 -3.35138
rclavicle -6.36111e-015 -1.82882e-014
rhumerus -58.0126 17.7178 -95.4532
rradius 99.8591
rwrist -21.6672
rhand -28.533 20.1103
rfingers 7.12502
rthumb -1.90069 -9.86103
lclavicle -6.36111e-015 -1.82882e-014
lhumerus -61.9024 -1.56119 84.1544
lradius 76.3494
lwrist 21.2593
lhand -30.1519 7.49834
lfingers 7.12502
lthumb -3.46414 37.4499
rfemur -26.9392 4.44072 18.5771
rtibia 73.2589
rfoot -17.5108 -20.7611
rtoes -25.1397
lfemur -11.5696 -10.9787 -32.6554
ltibia 44.4167
lfoot -19.225 -4.03426
ltoes 25.2789
516
root 8.91668 14.8042 -9.70115 -548.109 -55.7071 -170.036
lowerback 10.9283 1.41428 -0.702234
upperback 6.73389 1.36832 0.145779
thorax 0.86626 0.472641 0.406491
lowerneck -7.28538 0.391122 4.726
upperneck 2.61 0.392359 -8.40565
head 2.18594 -0.0177094 -3.61472
rclavicle 1.01977e-013 -3.18055e-014
rhumerus -60.0492 16.1362 -94.5276
rradius 99.7634
rwrist -22.5514
rhand -28.6035 20.6939
rfingers 7.12502
rthumb -1.96874 -9.27673
lclavicle 1.01977e-013 -3.18055e-014
lhumerus -59.9203 -1.89015 84.5466
lradius 80.4359
lwrist 21.6774
lhand -30.0207 6.88909
lfingers 7.12502
lthumb -3.33748 36.8427
rfemur -28.7472 5.01847 18.6228
rtibia 68.526
rfoot -18.208 -21.3108
rtoes -26.425
lfemur -8.7511 -11.6289 -32.6863
ltibia 43.3594
lfoot -17.6064 -3.91276
ltoes 22.5111
517
root 8.48797 14.9359 -10.0256 -548.871 -57.5031 -169.203
lowerback 10.5536 1.25004 -0.433224
upperback 6.80907 1.187 0.424713
thorax 1.1503 0.387689 0.568147
lowerneck -7.61935 0.743654 5.00427
upperneck 3.36227 0.905135 -9.14649
head 2.5568 0.200417 -3.92993
rclavicle -7.87187e-014 -1.59028e-014
rhumerus -61.9844 14.55 -93.5261
rradius 99.809
rwrist -23.7734
rhand -28.5827 21.1219
rfingers 7.12502
rthumb -1.94868 -8.84896
lclavicle -7.87187e-014 -1.59028e-014
lhumerus -58.188 -2.29531 85.1469
lradius 84.9116
lwrist 21.8377
lhand -29.5403 6.23122
lfingers 7.12502
lthumb -2.87346 36.1916
rfemur -29.6904 5.73815 18.5771
rtibia 62.8103
rfoot -18.9937 -21.7235
rtoes -27.4898
lfemur -6.06922 -12.0802 -32.6908
ltibia 42.5246
lfoot -15.41 -3.68104
ltoes 19.0613
